<svg version="1" xmlns="http://www.w3.org/2000/svg" width="746.667" height="746.667" viewBox="0 0 560.000000 560.000000"><path d="M3.8 2.9L.5 5.8v548.4l3.3 2.9L7 560h546l3.2-2.9 3.3-2.9V5.8l-3.3-2.9L553 0H7L3.8 2.9zM236 253.5V323l44 .2 43.9.3-9 13.7-9.1 13.8H203V202.2l15.8-9.1c8.6-5 16-9.1 16.5-9.1.4 0 .7 31.3.7 69.5zm-153-21V263h64v-61h33v149h-33v-60H83l-.2 30.2-.3 30.2L67 362.6c-8.5 6.2-15.8 11.3-16.2 11.3-.5.1-.8-38.6-.8-85.9v-86h33v30.5zm262.9 3.2c6.9 18.6 14.2 38.6 16.4 44.5l3.9 10.8h8.8l4.5-9c6.9-13.7 6.8-14.3-6.1-47.9-5.9-15.2-11-28.6-11.5-29.9l-.9-2.2h37.6l2.3 7c1.9 5.9 2.6 7 4.5 7s2.6-1.1 4.5-7l2.2-7h16.6c12.8 0 16.4.3 16 1.2-18.9 48.9-22.7 59.4-22.7 63.9 0 3.8 1 7 4.7 14.4l4.8 9.6 4.4-.3 4.3-.3 18.6-44.3 18.6-44.2h16.4c12.7 0 16.3.3 15.9 1.2-.2.7-13.6 33.7-29.7 73.3-16.1 39.6-29.4 72.6-29.7 73.3-.4.9-4.4 1.2-17.1 1l-16.5-.3-4.5-15.8-4.5-15.7h-9.2l-6.9 16-6.8 16h-28.4L328 280.8c-15.7-38.6-29.3-72.1-30.2-74.5L296 202h37.5l12.4 33.7z"/></svg>