<svg xmlns="http://www.w3.org/2000/svg" width="362.781" height="228.112" viewBox="308.042 113.245 362.781 228.112">
    <path d="M308.042 226.27v10.214l114.67 74.468V300.41M308.042 252.91v10.215l114.67 74.468v-10.538M504.098 315.984v-10.547l166.396-77.102v10.55M504.098 341.356v-10.543l166.396-77.1v10.542M630.294 193.74l38.548-16.477-123.225-61.287-36.606 16.636-29.632-19.368-158.98 60.13 32.126 19.046-43.824 17.135 114.997 74.796 43.167-20.1 36.9 24.715 167.06-75.792-40.53-19.433zm-162.116 44.153l-72.486-42.505 110.054-44.486 75.453 39.872-113.022 47.12zM460.71 286.914L429.033 300.9v10.052l31.68-13.993M460.71 313.55l-31.678 13.993v10.05l31.68-13.992M473.01 288.477v10.27l26.787 17.053v-10.34M473.01 313.81v10.263l26.787 17.054v-10.334"/>
    <g>
        <path d="M336.66 192.82l-16.263-9.787-.074 11.41 5.3 2.946"/>
    </g>
    <g>
        <path d="M651.564 197.837l10.682 5.33 8.577-3.787v-10.05"/>
    </g>
</svg>