<svg xmlns="http://www.w3.org/2000/svg" xmlns:xlink="http://www.w3.org/1999/xlink" version="1.1" x="0px" y="0px" viewBox="0 0 100 125" style="enable-background:new 0 0 100 100;" xml:space="preserve">
    <path d="M84.273,32.399c-0.13-0.231-0.346-0.402-0.601-0.474l-28.878-8.13c-0.259-0.073-0.529-0.039-0.761,0.09  s-0.401,0.346-0.474,0.601L50,37.134l-3.561-12.647c-0.072-0.255-0.242-0.472-0.473-0.601c-0.231-0.129-0.506-0.164-0.76-0.09  l-28.878,8.13c-0.532,0.149-0.841,0.702-0.691,1.233l11.924,42.354c0.072,0.256,0.242,0.472,0.474,0.602  c0.15,0.085,0.319,0.128,0.489,0.128c0.091,0,0.182-0.013,0.271-0.037l21.207-5.97l21.204,5.97c0.09,0.024,0.181,0.037,0.271,0.037  c0.17,0,0.338-0.043,0.489-0.128c0.231-0.13,0.401-0.346,0.474-0.601l11.925-42.354C84.436,32.904,84.403,32.63,84.273,32.399z   M55.516,56.724l20.709-24.817l5.591,1.574l-24.559,29.43L55.516,56.724z M51.688,38.518l9.136-10.948l5.592,1.574L52.46,45.869  l-1.42-5.045L51.688,38.518z M68.525,29.739l5.591,1.574L54.859,54.39l-1.742-6.188L68.525,29.739z M55.215,25.991l3.5,0.985  l-5.701,6.831L55.215,25.991z M29.214,74.009L17.833,33.58l26.953-7.588l11.382,40.43l-17.327,4.877L29.214,74.009z M57.672,68.075  c0.256-0.072,0.472-0.242,0.602-0.474s0.162-0.505,0.091-0.761l-0.449-1.596l23.148-27.74l-3.516,12.489L60.033,70.981l-6.341-1.786  L57.672,68.075z M73.31,65.043l-6.539,7.836l-4.629-1.303L76.22,54.704L73.31,65.043z M70.785,74.009l-1.906-0.537l3.104-3.719  L70.785,74.009z"/>
    <text x="0" y="115" fill="#000000" font-size="5px" font-weight="bold" font-family="'Helvetica Neue', Helvetica, Arial-Unicode, Arial, Sans-serif">Created by sobinsergey</text>
    <text x="0" y="120" fill="#000000" font-size="5px" font-weight="bold" font-family="'Helvetica Neue', Helvetica, Arial-Unicode, Arial, Sans-serif">from the Noun Project</text>
</svg>