<svg xmlns="http://www.w3.org/2000/svg" xmlns:xlink="http://www.w3.org/1999/xlink" version="1.1" x="0px" y="0px" height="25" width="25" viewbox="0 0 50 50" xml:space="preserve" transform="rotate(90)">
    <path d="M80,5H66h-6H40h-6H20c-0.552,0-1,0.448-1,1v88c0,0.553,0.448,1,1,1h14h6h20h6h14c0.553,0,1-0.447,1-1V6  C81,5.448,80.553,5,80,5z M75.101,93H67V81c0-0.553-0.447-1-1-1h-8.54C55.796,77.526,53,76,50,76c-3.001,0-5.797,1.526-7.461,4H34  c-0.552,0-1,0.447-1,1v12h-8.101C24.5,91.044,22.956,89.5,21,89.101V51h17.051c0.511,6.15,5.67,11,11.949,11  c6.28,0,11.438-4.85,11.949-11H79v38.101C77.044,89.5,75.5,91.044,75.101,93z M54.89,80h-9.781c1.293-1.26,3.045-2,4.891-2  C51.845,78,53.597,78.74,54.89,80z M24.899,7H33v12c0,0.552,0.448,1,1,1h8.539c1.663,2.474,4.46,4,7.461,4c3,0,5.797-1.526,7.46-4  H66c0.553,0,1-0.448,1-1V7h8.101C75.5,8.956,77.044,10.5,79,10.899V49H61.949C61.438,42.851,56.28,38,50,38  c-6.279,0-11.438,4.851-11.949,11H21V10.899C22.956,10.5,24.5,8.956,24.899,7z M45.109,20h9.782c-1.293,1.26-3.045,2-4.891,2  C48.154,22,46.402,21.26,45.109,20z M40.051,49c0.503-5.046,4.773-9,9.949-9c5.176,0,9.446,3.954,9.949,9H40.051z M59.949,51  c-0.504,5.046-4.773,9-9.949,9c-5.177,0-9.446-3.954-9.949-9H59.949z M79,8.816C78.153,8.514,77.486,7.847,77.184,7H79V8.816z M59,7  v5H41V7H59z M39,7v6c0,0.552,0.448,1,1,1h20c0.553,0,1-0.448,1-1V7h4v11H35V7H39z M22.816,7C22.514,7.847,21.847,8.514,21,8.816V7  H22.816z M21,91.184c0.847,0.302,1.514,0.969,1.816,1.816H21V91.184z M41,93v-5h18v5H41z M61,93v-6c0-0.553-0.447-1-1-1H40  c-0.552,0-1,0.447-1,1v6h-4V82h30v11H61z M77.184,93c0.302-0.847,0.969-1.514,1.816-1.816V93H77.184z"/>
    <!--<text x="0" y="115" fill="#000000" font-size="5px" font-weight="bold" font-family="'Helvetica Neue', Helvetica, Arial-Unicode, Arial, Sans-serif">Created by sobinsergey</text>
    <text x="0" y="120" fill="#000000" font-size="5px" font-weight="bold" font-family="'Helvetica Neue', Helvetica, Arial-Unicode, Arial, Sans-serif">from the Noun Project</text>-->
</svg>