<svg xmlns="http://www.w3.org/2000/svg" width="403.078" height="362.881" viewBox="278.463 44.799 403.078 362.881">
  <path d="M480 103.04c-28.192 0-51.341-21.45-53.545-48.608-7.011.855-15.143 2.473-23.197 4.69a124.2 124.2 0 0 0-30.971 13.274l-64.292 43.994 33.904 67.813 23.95-13.063c.067-.036.144-.031.21-.063.269-.13.56-.188.856-.264.291-.072.573-.161.869-.175.071-.004.134-.045.21-.045.21 0 .385.09.587.117.313.041.618.076.914.184.269.099.502.242.744.385.25.148.493.282.712.479.229.206.403.448.587.699.121.166.292.282.39.466.041.067.036.144.067.211.125.264.184.551.26.842.076.295.166.582.179.882.004.072.045.134.045.21v223.65H480.5v-295.69c-.167.002-.333.012-.5.012z"/>
  <path d="M587.484 72.253c-9.453-5.672-19.874-10.138-30.751-13.131-8.051-2.218-16.182-3.835-23.193-4.686-2.187 26.992-25.071 48.339-53.04 48.592V398.72h107.021V175.065c0-.076.04-.134.044-.21.014-.296.104-.583.18-.878.071-.292.13-.583.26-.847.031-.072.026-.144.063-.211.099-.179.26-.291.381-.452.188-.255.363-.506.601-.717.215-.188.452-.323.694-.466.251-.147.488-.295.766-.394.296-.107.597-.144.905-.184.201-.027.381-.117.587-.117.071 0 .135.041.211.045.3.013.582.099.878.175.295.076.582.134.851.264.067.031.14.027.206.063l22.754 12.419 33.963-67.935-63.381-43.367z"/>
  <path d="M479.5 407.68H592a4.474 4.474 0 0 0 4.479-4.479V182.618l20.349 11.102H616.837l21.469 11.711c.026.018.063.018.089.036.019.009.032.031.05.04.201.099.407.157.613.224.112.036.22.094.336.121.35.085.699.13 1.049.13.403 0 .807-.058 1.191-.161.13-.036.246-.107.372-.152.251-.094.502-.179.73-.313.143-.085.26-.207.394-.305.188-.144.386-.273.552-.448.125-.13.219-.296.331-.443.125-.166.269-.313.372-.502.009-.022.009-.045.018-.063.014-.031.04-.049.054-.081l36.674-73.346c.094-.184.089-.381.156-.574.095-.295.188-.569.229-.86.041-.292.027-.574.005-.865-.019-.282-.036-.551-.107-.824-.072-.287-.192-.542-.318-.807-.121-.251-.237-.493-.407-.721-.18-.247-.403-.448-.637-.654-.144-.13-.237-.3-.398-.413l-87.329-59.736a132.832 132.832 0 0 0-33.21-14.233c-12.615-3.467-25.102-5.537-34.245-5.681H435.2c-.014 0-.022.005-.031.005-.014 0-.022-.009-.036-.005-9.152.139-21.639 2.213-34.25 5.686-11.657 3.208-22.83 7.997-33.43 14.376l-87.1 59.593c-.166.112-.255.282-.403.412-.233.206-.453.403-.632.649-.17.229-.291.475-.412.726a4.713 4.713 0 0 0-.318.797 4.31 4.31 0 0 0-.108.833 7.557 7.557 0 0 0-.018.423v.005c-.001.141.004.283.022.428.036.291.134.564.233.851.063.188.063.39.157.573l36.673 73.347c.013.031.04.049.054.081.009.022.009.045.018.063.103.188.247.336.372.501.112.148.206.313.332.448.161.17.354.295.538.435.139.107.264.233.412.318.215.13.453.206.686.296.139.054.269.134.417.175.385.107.784.161 1.188.161.349 0 .699-.045 1.048-.13.117-.027.224-.085.336-.121.206-.067.417-.121.614-.219.018-.009.031-.027.049-.036.032-.018.063-.022.094-.036l41.816-22.817V403.2a4.478 4.478 0 0 0 4.48 4.479H479.5m191.863-278.041l-32.848 65.704-13.74-7.495 33.556-67.124 13.032 8.915zM524.616 53.76C522.762 76.29 503.479 94.08 480 94.08s-42.762-17.79-44.616-40.32h89.232zm-235.984 75.882l11.899-8.145 33.501 66.999-12.548 6.845m272.455-24.268c-.269-.13-.556-.188-.851-.264-.296-.076-.578-.162-.878-.175-.076-.004-.14-.045-.211-.045-.206 0-.386.09-.587.117-.309.04-.609.076-.905.184-.277.099-.515.247-.766.394-.242.144-.479.278-.694.466-.237.21-.412.461-.601.717-.121.161-.282.273-.381.452-.036.067-.031.139-.063.211-.13.264-.188.555-.26.847-.076.295-.166.582-.18.878-.004.076-.044.134-.044.21V398.72H372.48V175.07c0-.076-.041-.139-.045-.21-.013-.3-.103-.587-.179-.882-.076-.292-.134-.578-.26-.842-.031-.067-.027-.144-.067-.211-.098-.184-.269-.3-.39-.466-.184-.251-.358-.493-.587-.699-.219-.197-.461-.332-.712-.479-.242-.144-.475-.287-.744-.385-.295-.107-.6-.143-.914-.184-.202-.027-.376-.117-.587-.117-.076 0-.139.041-.21.045-.296.014-.578.103-.869.175-.296.076-.587.134-.856.264-.067.032-.143.027-.21.063l-23.95 13.063-33.904-67.813 64.292-43.994a124.162 124.162 0 0 1 30.971-13.274c8.055-2.218 16.186-3.835 23.197-4.69C428.659 81.59 451.808 103.04 480 103.04c28.197 0 51.341-21.45 53.54-48.604 7.012.851 15.143 2.468 23.193 4.686 10.877 2.993 21.298 7.459 30.751 13.131l63.378 43.366-33.963 67.935-22.754-12.419c-.066-.035-.138-.031-.206-.062z"/>
  <path d="M565.12 116.48h-35.84a4.478 4.478 0 0 0-4.48 4.48v22.4c0 16.943 13.942 24.904 21.316 26.746a4.416 4.416 0 0 0 2.168 0c7.374-1.841 21.315-9.802 21.315-26.746v-22.4a4.477 4.477 0 0 0-4.479-4.48zm-4.48 26.88c0 11.957-10.021 16.509-13.439 17.709-3.418-1.205-13.44-5.752-13.44-17.709v-17.92h26.88v17.92z"/>
</svg>
