<svg xmlns="http://www.w3.org/2000/svg" width="568.155" height="448.472" viewBox="0 0 568.155 448.472">
  <title>
    Asset 14
  </title>
  <path d="M521.978 275.692a45.958 45.958 0 0 0-28.259 9.993c-15.91-53.604-65.159-90.376-121.075-90.403H223.311v34.461h-45.949v-34.461H0l42.502 113.264 205.621 45.948c18.79 68.131 89.253 108.13 157.384 89.34a127.967 127.967 0 0 0 88.441-86.238 45.953 45.953 0 0 0 28.259 9.994c25.377 0 45.948-20.572 45.948-45.949s-20.571-45.948-45.948-45.948h-.229zM372.644 425.025c-49.804 1.039-93.266-33.587-103.385-82.363l-1.378-7.581-208.148-45.948-26.535-70.876h121.19v34.461h91.897v-34.461h126.358c57.098 0 103.385 46.287 103.385 103.384s-46.287 103.384-103.384 103.384zm149.334-80.41c-12.688 0-22.975-10.286-22.975-22.975 0-12.688 10.286-22.974 22.975-22.974s22.974 10.286 22.974 22.974c-.001 12.689-10.286 22.975-22.974 22.975z"/>
  <rect x="188.849" width="22.974" height="91.897"/>
  <rect x="244.055" y="40.207" transform="rotate(128.638 280.815 51.7)" width="73.518" height="22.975"/>
  <rect x="108.172" y="15.608" transform="scale(-1) rotate(-38.479 -149.667 342.751)" width="22.891" height="73.253"/>
</svg>
